#!OML:ASF H:\GeneralSubjects\Female5\Project 1\Capture day 1\Session 1\Female5.ASF
:FULLY-SPECIFIED
:DEGREES
334
root -23.5015 16.1404 6.2808 -167.91 31.0999 -177.498
lowerback 8.12351 2.18685 2.17465
upperback -8.67894 3.93172 1.55228
thorax -14.0967 1.91428 -0.335001
lowerneck -6.57545 7.82196 16.729
upperneck 25.8684 10.7107 -2.27483
head 10.451 6.87114 -2.21889
rclavicle -4.96962e-015 -2.38542e-014
rhumerus -43.5878 22.8454 -86.3986
rradius 28.2337
rwrist -16.585
rhand -28.09 -19.7486
rfingers 7.12502
rthumb -1.47288 -49.7233
lclavicle -4.96962e-015 -2.38542e-014
lhumerus -32.8372 -8.1731 84.1182
lradius 22.9395
lwrist -13.4759
lhand -23.0833 36.7743
lfingers 7.12502
lthumb 3.36268 66.7275
rfemur -13.8252 20.5164 22.6988
rtibia 10.3274
rfoot 0.377235 12.9838
rtoes 4.08252
lfemur -13.4511 -23.6688 -9.1045
ltibia 24.6512
lfoot -15.7939 4.31658
ltoes -69.8918
335
root -23.6354 16.1738 6.17898 -168.309 33.1826 -178.349
lowerback 8.05076 2.27731 2.0259
upperback -8.76298 3.93652 0.926365
thorax -14.1069 1.88087 -0.939148
lowerneck -6.1783 8.08785 17.199
upperneck 25.7022 11.2418 -2.94389
head 10.4422 7.08089 -2.47419
rclavicle -9.69821e-014 -1.63003e-014
rhumerus -44.0522 22.1482 -86.1241
rradius 28.0607
rwrist -16.5221
rhand -28.1742 -19.7646
rfingers 7.12502
rthumb -1.55413 -49.7387
lclavicle -9.69821e-014 -1.63003e-014
lhumerus -33.419 -9.47841 84.8623
lradius 23.3499
lwrist -13.0751
lhand -22.9636 36.2173
lfingers 7.12502
lthumb 3.47824 66.1687
rfemur -14.9089 19.7114 21.4377
rtibia 11.9071
rfoot -0.0521831 12.4229
rtoes 4.90369
lfemur -10.3076 -23.7882 -11.5181
ltibia 21.1347
lfoot -16.0703 6.77155
ltoes -69.8681
336
root -23.7746 16.1993 6.0759 -168.82 35.1098 -179.264
lowerback 8.06406 2.3403 1.93539
upperback -8.85507 3.92472 0.315708
thorax -14.1812 1.83588 -1.56191
lowerneck -5.79385 8.3385 17.6418
upperneck 25.5551 11.7678 -3.63478
head 10.4481 7.28797 -2.73217
rclavicle -1.08859e-013 -3.97569e-014
rhumerus -44.5468 21.5179 -85.7045
rradius 27.9571
rwrist -16.4779
rhand -28.3275 -19.8086
rfingers 7.12502
rthumb -1.70218 -49.7815
lclavicle -1.08859e-013 -3.97569e-014
lhumerus -34.1768 -11.1762 85.8938
lradius 24.2576
lwrist -12.3331
lhand -23.0945 35.523
lfingers 7.12502
lthumb 3.35186 65.4764
rfemur -16.0534 18.0496 20.2316
rtibia 13.6458
rfoot -0.638727 12.0201
rtoes 4.0866
lfemur -7.0608 -23.9976 -14.1795
ltibia 17.1502
lfoot -16.5343 9.775
ltoes -69.7067
337
root -23.9181 16.2133 5.97302 -169.435 36.8928 -180.299
lowerback 8.1045 2.36507 1.77111
upperback -8.95727 3.86413 -0.243986
thorax -14.2976 1.78057 -2.08231
lowerneck -5.41312 8.59486 18.0061
upperneck 25.4211 12.3194 -4.32239
head 10.4631 7.50365 -2.97255
rclavicle 1.2424e-015 -8.94531e-015
rhumerus -45.0182 20.96 -85.061
rradius 27.9002
rwrist -16.3221
rhand -28.5337 -19.8807
rfingers 7.12502
rthumb -1.9014 -49.852
lclavicle 1.2424e-015 -8.94531e-015
lhumerus -35.0482 -12.9049 87.1129
lradius 25.5427
lwrist -11.3899
lhand -23.4998 34.6754
lfingers 7.12502
lthumb 2.96039 64.6346
rfemur -17.355 15.5587 19.0565
rtibia 15.6617
rfoot -1.66768 11.6682
rtoes 0.787669
lfemur -3.77187 -24.4881 -17.0932
ltibia 12.7105
lfoot -17.2978 13.2596
ltoes -69.3997
338
root -24.0657 16.2136 5.87101 -170.183 38.533 -181.522
lowerback 8.14719 2.35175 1.45072
upperback -9.06488 3.74037 -0.748954
thorax -14.4413 1.71715 -2.4459
lowerneck -5.02449 8.85733 18.2963
upperneck 25.251 12.895 -5.03086
head 10.4682 7.72223 -3.20631
rclavicle 5.74239e-014 1.59028e-015
rhumerus -45.4127 20.4254 -84.1381
rradius 27.8582
rwrist -15.9528
rhand -28.7878 -19.9377
rfingers 7.12502
rthumb -2.1468 -49.9066
lclavicle 5.74239e-014 1.59028e-015
lhumerus -35.9677 -14.5025 88.4549
lradius 27.1177
lwrist -10.2426
lhand -24.0943 33.8543
lfingers 7.12502
lthumb 2.38631 63.8207
rfemur -18.8286 12.3821 17.8886
rtibia 17.982
rfoot -3.4507 11.1553
rtoes -5.15712
lfemur -0.485278 -25.5045 -20.311
ltibia 7.98994
lfoot -18.5647 17.1823
ltoes -68.9789
339
root -24.2167 16.1977 5.77027 -171.087 40.0237 -182.98
lowerback 8.16716 2.31574 0.9534
upperback -9.18021 3.5663 -1.23348
thorax -14.5968 1.65267 -2.67964
lowerneck -4.70114 9.11064 18.5442
upperneck 25.1107 13.4486 -5.71226
head 10.4952 7.93194 -3.42277
rclavicle -3.27995e-014 -3.97569e-015
rhumerus -45.7382 19.8618 -82.9773
rradius 27.8174
rwrist -15.3876
rhand -29.0125 -19.9084
rfingers 7.12502
rthumb -2.36375 -49.875
lclavicle -3.27995e-014 -3.97569e-015
lhumerus -36.9022 -16.0353 89.8777
lradius 28.9354
lwrist -8.81449
lhand -24.6927 33.1674
lfingers 7.12502
lthumb 1.80832 63.1395
rfemur -20.4091 8.84414 16.6882
rtibia 20.4636
rfoot -6.09941 10.1399
rtoes -12.6073
lfemur 2.77639 -27.4629 -23.9091
ltibia 3.29726
lfoot -20.8265 21.4874
ltoes -68.2776
340
root -24.3688 16.1635 5.6712 -172.193 41.3439 -184.712
lowerback 8.16846 2.27333 0.291179
upperback -9.30415 3.36037 -1.74975
thorax -14.7621 1.59197 -2.85204
lowerneck -4.40463 9.33738 18.7538
upperneck 24.9333 13.9305 -6.28475
head 10.4989 8.11495 -3.60357
rclavicle -1.68097e-014 7.95139e-016
rhumerus -46.0451 19.2326 -81.6822
rradius 27.77
rwrist -14.7489
rhand -29.0908 -19.741
rfingers 7.12502
rthumb -2.4394 -49.7068
lclavicle -1.68097e-014 7.95139e-016
lhumerus -37.8385 -17.6574 91.3439
lradius 30.9457
lwrist -7.06494
lhand -25.1269 32.5959
lfingers 7.12502
lthumb 1.38903 62.5711
rfemur -21.9236 5.315 15.4036
rtibia 22.8131
rfoot -9.30799 8.47429
rtoes -18.524
lfemur 6.03449 -30.7726 -28.0313
ltibia -0.875946
lfoot -24.6794 26.0645
ltoes -67.163
341
root -24.5194 16.1102 5.57462 -173.55 42.4557 -186.736
lowerback 8.18025 2.23478 -0.508227
upperback -9.42988 3.13646 -2.33942
thorax -14.9429 1.53639 -3.02993
lowerneck -4.14154 9.51178 18.9606
upperneck 24.7478 14.3065 -6.76171
head 10.4878 8.25908 -3.76347
rclavicle 7.3923e-015 3.47873e-014
rhumerus -46.3567 18.4628 -80.3221
rradius 27.6875
rwrist -14.174
rhand -28.9959 -19.4738
rfingers 7.12502
rthumb -2.34777 -49.4407
lclavicle 7.3923e-015 3.47873e-014
lhumerus -38.7511 -19.5003 92.8073
lradius 33.0722
lwrist -5.06138
lhand -25.3093 32.0868
lfingers 7.12502
lthumb 1.21283 62.0631
rfemur -23.1758 2.11908 13.934
rtibia 24.7133
rfoot -12.4519 6.51312
rtoes -21.6913
lfemur 9.3081 -35.5104 -32.8006
ltibia -3.92871
lfoot -30.5627 30.5023
ltoes -65.5514
342
root -24.6666 16.0376 5.48168 -175.151 43.3021 -189.002
lowerback 8.22727 2.20288 -1.37766
upperback -9.54922 2.90713 -3.01827
thorax -15.141 1.48416 -3.27364
lowerneck -3.91793 9.63081 19.1311
upperneck 24.5963 14.5618 -7.06061
head 10.4652 8.36381 -3.8697
rclavicle 1.49262e-013 4.74101e-014
rhumerus -46.6949 17.4299 -78.9095
rradius 27.5303
rwrist -13.7516
rhand -28.7443 -19.1686
rfingers 7.12502
rthumb -2.10476 -49.138
lclavicle 1.49262e-013 4.74101e-014
lhumerus -39.5941 -21.6176 94.2053
lradius 35.2013
lwrist -3.04226
lhand -24.9529 31.6373
lfingers 7.12502
lthumb 1.55708 61.6114
rfemur -24.0325 -0.563949 12.1823
rtibia 25.9585
rfoot -15.0654 4.84603
rtoes -20.949
lfemur 12.4944 -40.8866 -38.0793
ltibia -5.59606
lfoot -37.3881 34.379
ltoes -63.9193
343
root -24.8085 15.9482 5.39314 -176.922 43.8217 -191.37
lowerback 8.33196 2.1681 -2.22781
upperback -9.6434 2.67382 -3.75744
thorax -15.3458 1.42779 -3.60267
lowerneck -3.70698 9.68709 19.3041
upperneck 24.4817 14.7185 -7.2887
head 10.4397 8.43431 -3.96496
rclavicle 7.52711e-014 4.83047e-014
rhumerus -47.0554 16.039 -77.3976
rradius 27.2554
rwrist -13.4774
rhand -28.4718 -18.9456
rfingers 7.12502
rthumb -1.84162 -48.9174
lclavicle 7.52711e-014 4.83047e-014
lhumerus -40.3086 -23.998 95.5122
lradius 37.213
lwrist -1.23494
lhand -24.3036 30.7956
lfingers 7.12502
lthumb 2.18419 60.7642
rfemur -24.6078 -2.90933 10.1437
rtibia 26.8443
rfoot -16.8482 3.99595
rtoes -17.9202
lfemur 13.0919 -36.1939 -40.0842
ltibia -8.10647
lfoot -34.2594 31.2925
ltoes -63.1858
344
root -24.9424 15.8477 5.30901 -178.729 43.9703 -193.632
lowerback 8.49806 2.11639 -2.98647
upperback -9.6904 2.43204 -4.47853
thorax -15.5333 1.36075 -3.96655
lowerneck -3.51765 9.68878 19.4424
upperneck 24.4434 14.8091 -7.48528
head 10.4309 8.48098 -4.05225
rclavicle 1.03803e-014 5.99212e-014
rhumerus -47.4121 14.2423 -75.6797
rradius 26.8222
rwrist -13.2627
rhand -28.3805 -18.9397
rfingers 7.12502
rthumb -1.75338 -48.9123
lclavicle 1.03803e-014 5.99212e-014
lhumerus -40.833 -26.5376 96.743
lradius 38.9798
lwrist 0.158131
lhand -23.4074 30.2227
lfingers 7.12502
lthumb 3.04965 60.1806
rfemur -25.0042 -5.13151 7.9185
rtibia 27.7061
rfoot -17.6467 4.04674
rtoes -14.0657
lfemur 12.7971 -31.8236 -41.4353
ltibia -9.45156
lfoot -29.3404 29.3253
ltoes -64.0856
